# xmcd CD database file
#
# Track frame offsets:
#	182
#	30902
#	59422
#	76727
#	105597
#	134775
#	155150
#	170052
#	186900
#	212582
#	231505
#	262192
#	277672
#
# Disc length: 4039 seconds
#
# Revision: 4
# Processed by: cddbd v1.4PL0 Copyright (c) Steve Scherf et al.
# Submitted via: CDex 1.50Beta6
#
DISCID=ba0fc50d
DTITLE=Billie Holiday - Songs for distingue lovers
DYEAR=1900
DGENRE=Jazz
TTITLE0=Day In, Day Out
TTITLE1=Darn That Dream
TTITLE2=But Not For Me
TTITLE3=Body And Soul
TTITLE4=Just Friend (Instrumental)
TTITLE5=Stars Fell on Alabama
TTITLE6=Say It Isn't So
TTITLE7=Love Is Here To Stay
TTITLE8=One for My Baby (and One More For the Road)
TTITLE9=They Can't Take That Away From Me
TTITLE10=Embraceable You
TTITLE11=Let's Call The Whole Thing Off
TTITLE12=Gee, Baby, Ain't I Good To You
EXTD=
EXTT0=
EXTT1=
EXTT2=
EXTT3=
EXTT4=
EXTT5=
EXTT6=
EXTT7=
EXTT8=
EXTT9=
EXTT10=
EXTT11=
EXTT12=
PLAYORDER=
